<mxfile host="app.diagrams.net" agent="Mozilla/5.0 (Windows NT 10.0; Win64; x64) AppleWebKit/537.36 (KHTML, like Gecko) Chrome/130.0.0.0 Safari/537.36" version="24.8.3">
  <diagram name="Página-1" id="F97XcNCzRjJbJXeyfDGR">
    <mxGraphModel dx="3713" dy="1860" grid="1" gridSize="10" guides="1" tooltips="1" connect="1" arrows="1" fold="1" page="1" pageScale="1" pageWidth="827" pageHeight="1169" math="0" shadow="0">
      <root>
        <mxCell id="0" />
        <mxCell id="1" parent="0" />
        <mxCell id="SycHFNVeuM0urfIeq2xW-57" style="edgeStyle=orthogonalEdgeStyle;rounded=0;orthogonalLoop=1;jettySize=auto;html=1;entryX=0;entryY=0.5;entryDx=0;entryDy=0;" edge="1" parent="1" source="SycHFNVeuM0urfIeq2xW-55" target="SycHFNVeuM0urfIeq2xW-56">
          <mxGeometry relative="1" as="geometry" />
        </mxCell>
        <mxCell id="SycHFNVeuM0urfIeq2xW-55" value="Inicio" style="ellipse;whiteSpace=wrap;html=1;" vertex="1" parent="1">
          <mxGeometry x="50" y="90" width="120" height="80" as="geometry" />
        </mxCell>
        <mxCell id="SycHFNVeuM0urfIeq2xW-59" style="edgeStyle=orthogonalEdgeStyle;rounded=0;orthogonalLoop=1;jettySize=auto;html=1;entryX=0;entryY=0.5;entryDx=0;entryDy=0;" edge="1" parent="1" source="SycHFNVeuM0urfIeq2xW-56" target="SycHFNVeuM0urfIeq2xW-58">
          <mxGeometry relative="1" as="geometry" />
        </mxCell>
        <mxCell id="SycHFNVeuM0urfIeq2xW-56" value="Realizacion Sprint Plannig" style="ellipse;whiteSpace=wrap;html=1;" vertex="1" parent="1">
          <mxGeometry x="200" y="90" width="120" height="80" as="geometry" />
        </mxCell>
        <mxCell id="SycHFNVeuM0urfIeq2xW-61" style="edgeStyle=orthogonalEdgeStyle;rounded=0;orthogonalLoop=1;jettySize=auto;html=1;entryX=0;entryY=0.5;entryDx=0;entryDy=0;" edge="1" parent="1" source="SycHFNVeuM0urfIeq2xW-58" target="SycHFNVeuM0urfIeq2xW-60">
          <mxGeometry relative="1" as="geometry" />
        </mxCell>
        <mxCell id="SycHFNVeuM0urfIeq2xW-58" value="Creación de la Lista de Requisitos" style="ellipse;whiteSpace=wrap;html=1;" vertex="1" parent="1">
          <mxGeometry x="353" y="90" width="120" height="80" as="geometry" />
        </mxCell>
        <mxCell id="SycHFNVeuM0urfIeq2xW-63" style="edgeStyle=orthogonalEdgeStyle;rounded=0;orthogonalLoop=1;jettySize=auto;html=1;entryX=0;entryY=0.5;entryDx=0;entryDy=0;" edge="1" parent="1" source="SycHFNVeuM0urfIeq2xW-60" target="SycHFNVeuM0urfIeq2xW-62">
          <mxGeometry relative="1" as="geometry" />
        </mxCell>
        <mxCell id="SycHFNVeuM0urfIeq2xW-60" value="Seleccion de Requisitos" style="ellipse;whiteSpace=wrap;html=1;" vertex="1" parent="1">
          <mxGeometry x="540" y="90" width="120" height="80" as="geometry" />
        </mxCell>
        <mxCell id="SycHFNVeuM0urfIeq2xW-65" style="edgeStyle=orthogonalEdgeStyle;rounded=0;orthogonalLoop=1;jettySize=auto;html=1;entryX=0;entryY=0.5;entryDx=0;entryDy=0;" edge="1" parent="1" source="SycHFNVeuM0urfIeq2xW-62" target="SycHFNVeuM0urfIeq2xW-64">
          <mxGeometry relative="1" as="geometry" />
        </mxCell>
        <mxCell id="SycHFNVeuM0urfIeq2xW-62" value="Creacion del Sprint Backlog" style="ellipse;whiteSpace=wrap;html=1;" vertex="1" parent="1">
          <mxGeometry x="700" y="90" width="120" height="80" as="geometry" />
        </mxCell>
        <mxCell id="SycHFNVeuM0urfIeq2xW-68" value="" style="edgeStyle=orthogonalEdgeStyle;rounded=0;orthogonalLoop=1;jettySize=auto;html=1;" edge="1" parent="1" source="SycHFNVeuM0urfIeq2xW-64" target="SycHFNVeuM0urfIeq2xW-67">
          <mxGeometry relative="1" as="geometry" />
        </mxCell>
        <mxCell id="SycHFNVeuM0urfIeq2xW-64" value="Ejecucion del Sprint" style="ellipse;whiteSpace=wrap;html=1;" vertex="1" parent="1">
          <mxGeometry x="860" y="90" width="120" height="80" as="geometry" />
        </mxCell>
        <mxCell id="SycHFNVeuM0urfIeq2xW-70" value="" style="edgeStyle=orthogonalEdgeStyle;rounded=0;orthogonalLoop=1;jettySize=auto;html=1;" edge="1" parent="1" source="SycHFNVeuM0urfIeq2xW-67" target="SycHFNVeuM0urfIeq2xW-69">
          <mxGeometry relative="1" as="geometry" />
        </mxCell>
        <mxCell id="SycHFNVeuM0urfIeq2xW-67" value="Diseño Arquitectonico del Software" style="ellipse;whiteSpace=wrap;html=1;" vertex="1" parent="1">
          <mxGeometry x="1010" y="90" width="120" height="80" as="geometry" />
        </mxCell>
        <mxCell id="SycHFNVeuM0urfIeq2xW-72" value="" style="edgeStyle=orthogonalEdgeStyle;rounded=0;orthogonalLoop=1;jettySize=auto;html=1;" edge="1" parent="1" source="SycHFNVeuM0urfIeq2xW-69" target="SycHFNVeuM0urfIeq2xW-71">
          <mxGeometry relative="1" as="geometry" />
        </mxCell>
        <mxCell id="SycHFNVeuM0urfIeq2xW-69" value="Diseño de XEJEL" style="ellipse;whiteSpace=wrap;html=1;" vertex="1" parent="1">
          <mxGeometry x="1170" y="90" width="120" height="80" as="geometry" />
        </mxCell>
        <mxCell id="SycHFNVeuM0urfIeq2xW-74" style="edgeStyle=orthogonalEdgeStyle;rounded=0;orthogonalLoop=1;jettySize=auto;html=1;entryX=0;entryY=0.5;entryDx=0;entryDy=0;" edge="1" parent="1" source="SycHFNVeuM0urfIeq2xW-71" target="SycHFNVeuM0urfIeq2xW-73">
          <mxGeometry relative="1" as="geometry" />
        </mxCell>
        <mxCell id="SycHFNVeuM0urfIeq2xW-71" value="Desarrollo de XEJEL" style="ellipse;whiteSpace=wrap;html=1;" vertex="1" parent="1">
          <mxGeometry x="1330" y="90" width="120" height="80" as="geometry" />
        </mxCell>
        <mxCell id="SycHFNVeuM0urfIeq2xW-76" value="" style="edgeStyle=orthogonalEdgeStyle;rounded=0;orthogonalLoop=1;jettySize=auto;html=1;" edge="1" parent="1" source="SycHFNVeuM0urfIeq2xW-73" target="SycHFNVeuM0urfIeq2xW-75">
          <mxGeometry relative="1" as="geometry" />
        </mxCell>
        <mxCell id="SycHFNVeuM0urfIeq2xW-73" value="Realizacion del Sprint Review" style="ellipse;whiteSpace=wrap;html=1;" vertex="1" parent="1">
          <mxGeometry x="1490" y="90" width="120" height="80" as="geometry" />
        </mxCell>
        <mxCell id="SycHFNVeuM0urfIeq2xW-78" style="edgeStyle=orthogonalEdgeStyle;rounded=0;orthogonalLoop=1;jettySize=auto;html=1;entryX=0;entryY=0.5;entryDx=0;entryDy=0;" edge="1" parent="1" source="SycHFNVeuM0urfIeq2xW-75" target="SycHFNVeuM0urfIeq2xW-77">
          <mxGeometry relative="1" as="geometry" />
        </mxCell>
        <mxCell id="SycHFNVeuM0urfIeq2xW-75" value="Identifcacion de adaptaciones necesarias" style="ellipse;whiteSpace=wrap;html=1;" vertex="1" parent="1">
          <mxGeometry x="1650" y="90" width="120" height="80" as="geometry" />
        </mxCell>
        <mxCell id="SycHFNVeuM0urfIeq2xW-80" value="" style="edgeStyle=orthogonalEdgeStyle;rounded=0;orthogonalLoop=1;jettySize=auto;html=1;" edge="1" parent="1" source="SycHFNVeuM0urfIeq2xW-77" target="SycHFNVeuM0urfIeq2xW-79">
          <mxGeometry relative="1" as="geometry" />
        </mxCell>
        <mxCell id="SycHFNVeuM0urfIeq2xW-77" value="Realizar un Sprint Retrospective" style="ellipse;whiteSpace=wrap;html=1;" vertex="1" parent="1">
          <mxGeometry x="1800" y="90" width="120" height="80" as="geometry" />
        </mxCell>
        <mxCell id="SycHFNVeuM0urfIeq2xW-88" value="" style="edgeStyle=orthogonalEdgeStyle;rounded=0;orthogonalLoop=1;jettySize=auto;html=1;" edge="1" parent="1" source="SycHFNVeuM0urfIeq2xW-79">
          <mxGeometry relative="1" as="geometry">
            <mxPoint x="2100" y="130" as="targetPoint" />
          </mxGeometry>
        </mxCell>
        <mxCell id="SycHFNVeuM0urfIeq2xW-79" value="Se entrega un proyecto funcional" style="ellipse;whiteSpace=wrap;html=1;" vertex="1" parent="1">
          <mxGeometry x="1950" y="90" width="120" height="80" as="geometry" />
        </mxCell>
        <mxCell id="SycHFNVeuM0urfIeq2xW-84" value="" style="edgeStyle=orthogonalEdgeStyle;rounded=0;orthogonalLoop=1;jettySize=auto;html=1;" edge="1" parent="1" target="SycHFNVeuM0urfIeq2xW-86">
          <mxGeometry relative="1" as="geometry">
            <mxPoint x="920" y="170" as="sourcePoint" />
          </mxGeometry>
        </mxCell>
        <mxCell id="SycHFNVeuM0urfIeq2xW-85" style="edgeStyle=orthogonalEdgeStyle;rounded=0;orthogonalLoop=1;jettySize=auto;html=1;entryX=0.5;entryY=1;entryDx=0;entryDy=0;" edge="1" parent="1" source="SycHFNVeuM0urfIeq2xW-86">
          <mxGeometry relative="1" as="geometry">
            <mxPoint x="760" y="170" as="targetPoint" />
          </mxGeometry>
        </mxCell>
        <mxCell id="SycHFNVeuM0urfIeq2xW-86" value="Actualizacion del Sprint Backlog" style="ellipse;whiteSpace=wrap;html=1;" vertex="1" parent="1">
          <mxGeometry x="860" y="260" width="120" height="80" as="geometry" />
        </mxCell>
        <mxCell id="SycHFNVeuM0urfIeq2xW-92" style="edgeStyle=orthogonalEdgeStyle;rounded=0;orthogonalLoop=1;jettySize=auto;html=1;entryX=1;entryY=0.5;entryDx=0;entryDy=0;exitX=0.5;exitY=1;exitDx=0;exitDy=0;" edge="1" parent="1" source="SycHFNVeuM0urfIeq2xW-89" target="SycHFNVeuM0urfIeq2xW-91">
          <mxGeometry relative="1" as="geometry">
            <mxPoint x="2140" y="200" as="sourcePoint" />
            <Array as="points">
              <mxPoint x="2155" y="410" />
            </Array>
          </mxGeometry>
        </mxCell>
        <mxCell id="SycHFNVeuM0urfIeq2xW-95" value="NO" style="edgeLabel;html=1;align=center;verticalAlign=middle;resizable=0;points=[];" vertex="1" connectable="0" parent="SycHFNVeuM0urfIeq2xW-92">
          <mxGeometry x="-0.8028" y="-2" relative="1" as="geometry">
            <mxPoint x="12" y="10" as="offset" />
          </mxGeometry>
        </mxCell>
        <mxCell id="SycHFNVeuM0urfIeq2xW-99" value="" style="edgeStyle=orthogonalEdgeStyle;rounded=0;orthogonalLoop=1;jettySize=auto;html=1;" edge="1" parent="1" source="SycHFNVeuM0urfIeq2xW-89" target="SycHFNVeuM0urfIeq2xW-98">
          <mxGeometry relative="1" as="geometry" />
        </mxCell>
        <mxCell id="SycHFNVeuM0urfIeq2xW-89" value="¿Se puede desplegar?" style="rhombus;whiteSpace=wrap;html=1;" vertex="1" parent="1">
          <mxGeometry x="2100" y="60" width="110" height="140" as="geometry" />
        </mxCell>
        <mxCell id="SycHFNVeuM0urfIeq2xW-93" style="edgeStyle=orthogonalEdgeStyle;rounded=0;orthogonalLoop=1;jettySize=auto;html=1;entryX=0.5;entryY=1;entryDx=0;entryDy=0;" edge="1" parent="1" source="SycHFNVeuM0urfIeq2xW-91" target="SycHFNVeuM0urfIeq2xW-56">
          <mxGeometry relative="1" as="geometry" />
        </mxCell>
        <mxCell id="SycHFNVeuM0urfIeq2xW-91" value="Reevaluar y Refinar la Lista de Requistos" style="ellipse;whiteSpace=wrap;html=1;" vertex="1" parent="1">
          <mxGeometry x="1251" y="370" width="120" height="80" as="geometry" />
        </mxCell>
        <mxCell id="SycHFNVeuM0urfIeq2xW-101" value="" style="edgeStyle=orthogonalEdgeStyle;rounded=0;orthogonalLoop=1;jettySize=auto;html=1;" edge="1" parent="1" source="SycHFNVeuM0urfIeq2xW-98" target="SycHFNVeuM0urfIeq2xW-100">
          <mxGeometry relative="1" as="geometry" />
        </mxCell>
        <mxCell id="SycHFNVeuM0urfIeq2xW-98" value="Definir infraestructura tecnologica" style="ellipse;whiteSpace=wrap;html=1;" vertex="1" parent="1">
          <mxGeometry x="2230" y="90" width="120" height="80" as="geometry" />
        </mxCell>
        <mxCell id="SycHFNVeuM0urfIeq2xW-103" value="" style="edgeStyle=orthogonalEdgeStyle;rounded=0;orthogonalLoop=1;jettySize=auto;html=1;" edge="1" parent="1" source="SycHFNVeuM0urfIeq2xW-100" target="SycHFNVeuM0urfIeq2xW-102">
          <mxGeometry relative="1" as="geometry" />
        </mxCell>
        <mxCell id="SycHFNVeuM0urfIeq2xW-100" value="Realizar contrato de Telecomunicaciones" style="ellipse;whiteSpace=wrap;html=1;" vertex="1" parent="1">
          <mxGeometry x="2371" y="90" width="120" height="80" as="geometry" />
        </mxCell>
        <mxCell id="SycHFNVeuM0urfIeq2xW-105" value="" style="edgeStyle=orthogonalEdgeStyle;rounded=0;orthogonalLoop=1;jettySize=auto;html=1;" edge="1" parent="1" source="SycHFNVeuM0urfIeq2xW-102" target="SycHFNVeuM0urfIeq2xW-104">
          <mxGeometry relative="1" as="geometry" />
        </mxCell>
        <mxCell id="SycHFNVeuM0urfIeq2xW-102" value="Desplegar localmente" style="ellipse;whiteSpace=wrap;html=1;" vertex="1" parent="1">
          <mxGeometry x="2530" y="90" width="120" height="80" as="geometry" />
        </mxCell>
        <mxCell id="SycHFNVeuM0urfIeq2xW-106" style="edgeStyle=orthogonalEdgeStyle;rounded=0;orthogonalLoop=1;jettySize=auto;html=1;entryX=0.5;entryY=1;entryDx=0;entryDy=0;" edge="1" parent="1" source="SycHFNVeuM0urfIeq2xW-104" target="SycHFNVeuM0urfIeq2xW-102">
          <mxGeometry relative="1" as="geometry">
            <Array as="points">
              <mxPoint x="2740" y="240" />
              <mxPoint x="2590" y="240" />
            </Array>
          </mxGeometry>
        </mxCell>
        <mxCell id="SycHFNVeuM0urfIeq2xW-107" value="NO" style="edgeLabel;html=1;align=center;verticalAlign=middle;resizable=0;points=[];" vertex="1" connectable="0" parent="SycHFNVeuM0urfIeq2xW-106">
          <mxGeometry x="-0.7017" y="-3" relative="1" as="geometry">
            <mxPoint x="-67" y="21" as="offset" />
          </mxGeometry>
        </mxCell>
        <mxCell id="SycHFNVeuM0urfIeq2xW-109" value="" style="edgeStyle=orthogonalEdgeStyle;rounded=0;orthogonalLoop=1;jettySize=auto;html=1;" edge="1" parent="1" source="SycHFNVeuM0urfIeq2xW-104">
          <mxGeometry relative="1" as="geometry">
            <mxPoint x="2850" y="130" as="targetPoint" />
          </mxGeometry>
        </mxCell>
        <mxCell id="SycHFNVeuM0urfIeq2xW-112" value="SI" style="edgeLabel;html=1;align=center;verticalAlign=middle;resizable=0;points=[];" vertex="1" connectable="0" parent="SycHFNVeuM0urfIeq2xW-109">
          <mxGeometry x="-0.4753" y="-3" relative="1" as="geometry">
            <mxPoint x="6" y="7" as="offset" />
          </mxGeometry>
        </mxCell>
        <mxCell id="SycHFNVeuM0urfIeq2xW-104" value="¿Se desplego correctamente?" style="rhombus;whiteSpace=wrap;html=1;" vertex="1" parent="1">
          <mxGeometry x="2690" y="65" width="110" height="130" as="geometry" />
        </mxCell>
        <mxCell id="SycHFNVeuM0urfIeq2xW-115" style="edgeStyle=orthogonalEdgeStyle;rounded=0;orthogonalLoop=1;jettySize=auto;html=1;" edge="1" parent="1" source="SycHFNVeuM0urfIeq2xW-110">
          <mxGeometry relative="1" as="geometry">
            <mxPoint x="3040" y="130" as="targetPoint" />
          </mxGeometry>
        </mxCell>
        <mxCell id="SycHFNVeuM0urfIeq2xW-110" value="Mantenimiento" style="ellipse;whiteSpace=wrap;html=1;" vertex="1" parent="1">
          <mxGeometry x="2845" y="90" width="120" height="80" as="geometry" />
        </mxCell>
        <mxCell id="SycHFNVeuM0urfIeq2xW-113" style="edgeStyle=orthogonalEdgeStyle;rounded=0;orthogonalLoop=1;jettySize=auto;html=1;entryX=0.5;entryY=1;entryDx=0;entryDy=0;" edge="1" parent="1" source="SycHFNVeuM0urfIeq2xW-110" target="SycHFNVeuM0urfIeq2xW-110">
          <mxGeometry relative="1" as="geometry" />
        </mxCell>
        <mxCell id="SycHFNVeuM0urfIeq2xW-116" value="FIN" style="ellipse;whiteSpace=wrap;html=1;" vertex="1" parent="1">
          <mxGeometry x="3030" y="90" width="120" height="80" as="geometry" />
        </mxCell>
      </root>
    </mxGraphModel>
  </diagram>
</mxfile>
